<?xml version="1.0" standalone="no"?>
<!DOCTYPE svg PUBLIC "-//W3C//DTD SVG 20010904//EN"
 "http://www.w3.org/TR/2001/REC-SVG-20010904/DTD/svg10.dtd">
<svg version="1.0" xmlns="http://www.w3.org/2000/svg"
 width="50.000000pt" height="60.000000pt" viewBox="0 0 400.000000 400.000000"
 preserveAspectRatio="xMidYMid meet">
<metadata>
Created by potrace 1.16, written by Peter Selinger 2001-2019
</metadata>
<g transform="translate(0.000000,400.000000) scale(0.100000,-0.100000)"
fill="#000000" stroke="none">
<path d="M288 3258 c-81 -192 -118 -365 -119 -567 -1 -141 11 -168 112 -264
43 -42 83 -87 89 -102 6 -17 10 -315 10 -821 l0 -794 95 0 95 0 0 811 0 810
88 87 c115 114 127 145 119 311 -10 188 -62 410 -135 571 l-21 45 0 -297 -1
-298 -45 0 -45 0 0 295 0 295 -60 0 -60 0 0 -295 0 -295 -40 0 -40 0 -2 298
-3 297 -37 -87z"/>
<path d="M3460 2655 c0 -602 2 -685 15 -685 13 0 15 -77 15 -630 l0 -630 90 0
90 0 0 630 0 630 29 0 28 0 7 93 c3 50 13 180 21 287 19 255 19 493 0 605 -36
202 -139 349 -267 379 l-28 6 0 -685z"/>
<path d="M1899 3301 c-292 -31 -542 -149 -756 -358 -202 -198 -323 -420 -368
-677 -20 -118 -20 -354 1 -476 46 -266 163 -481 375 -686 250 -241 532 -354
883 -354 354 0 634 110 887 348 302 284 442 688 384 1112 -39 292 -160 526
-379 738 -191 184 -395 291 -641 336 -103 19 -289 27 -386 17z m394 -385 c165
-49 286 -125 414 -259 87 -92 125 -146 173 -250 54 -117 71 -193 77 -343 6
-150 -9 -248 -58 -375 -101 -261 -356 -486 -634 -560 -116 -31 -326 -31 -447
-1 -165 41 -280 107 -416 237 -263 251 -352 603 -241 951 90 282 352 532 634
603 119 30 119 30 270 26 115 -2 156 -8 228 -29z"/>
<path d="M1945 2864 c-231 -34 -418 -134 -557 -298 -72 -85 -150 -241 -172
-343 -20 -90 -21 -294 -1 -385 31 -147 93 -262 210 -386 157 -167 322 -247
555 -267 393 -34 760 227 871 620 30 106 33 323 5 430 -77 295 -310 531 -599
604 -76 20 -252 34 -312 25z"/>
</g>
</svg>
